<?xml version="1.0" encoding="utf-8"?>
<!-- Generator: Adobe Illustrator 27.3.0, SVG Export Plug-In . SVG Version: 6.00 Build 0)  -->
<svg version="1.1" id="LOGO" xmlns="http://www.w3.org/2000/svg" xmlns:xlink="http://www.w3.org/1999/xlink" x="0px" y="0px"
	 viewBox="0 0 135 27" enable-background="new 0 0 135 27" xml:space="preserve">
<path fill="#F0EBD8" d="M60.7,5.94c0.07,0,0.19-0.01,0.37-0.02c0.18-0.02,0.32-0.02,0.42-0.02c1.58,0,2.63,0.15,3.15,0.44
	c0.49,0.23,1.02,0.59,1.58,1.08c0.56,0.49,0.89,0.87,0.99,1.13c0.07,0.2,0.1,0.34,0.1,0.44c0,0.46-0.16,0.69-0.49,0.69
	c-0.13,0-0.25-0.05-0.34-0.15c-0.16-0.16-0.53-0.4-1.11-0.71c-0.57-0.31-0.88-0.48-0.91-0.52c-0.39-0.2-1.15-0.3-2.27-0.3
	c-0.92,0-2.09,0.16-3.5,0.49c-2.73,0.69-4.48,2.69-5.27,6.01c-0.13,0.49-0.2,1.28-0.2,2.36c0,0.89,0.05,1.43,0.15,1.63
	c0.1,0.13,0.25,0.48,0.44,1.03c0.3,0.69,0.81,1.34,1.55,1.95c0.74,0.61,1.52,1.03,2.34,1.26c1.31,0.39,3.3,0.59,5.96,0.59
	c1.02,0,1.77-0.05,2.27-0.15c2.04-0.39,3.29-0.67,3.77-0.84c0.48-0.16,0.83-0.46,1.06-0.89c0.23-0.46,0.57-0.71,1.03-0.74h0.2
	c0.85,0,1.28,0.48,1.28,1.43c0,0.43-0.25,0.9-0.74,1.43c-0.82,0.79-2.12,1.4-3.89,1.82c-1.87,0.43-3.73,0.64-5.57,0.64
	c-1.71,0-3.33-0.18-4.88-0.54c-3.64-0.82-6.03-2.97-7.14-6.45c-0.13-0.52-0.2-1.21-0.2-2.07c0-1.05,0.08-1.94,0.25-2.66
	c0.56-2.3,1.42-4.07,2.59-5.32c1.17-1.25,2.83-2.13,5-2.66C59.14,6.23,59.81,6.1,60.7,5.94z M77.33,6.84
	c0.61-0.52,1.13-0.5,1.57,0.07c0.61,0.78,0.91,1.98,0.91,3.59c0,2.22-0.61,4.25-1.83,6.08c-0.44,0.61-0.65,1.09-0.65,1.44
	c0,0.09,0.04,0.28,0.13,0.59c0.09,0.31,0.13,0.65,0.13,1.05c0,0.39,0.23,1.02,0.69,1.89c0.46,0.87,0.86,1.48,1.21,1.83
	c0.43,0.39,1,0.61,1.7,0.65c0.83,0.09,1.31,0.2,1.44,0.33c0.22,0.17,0.3,0.42,0.26,0.75c-0.04,0.33-0.2,0.6-0.46,0.82
	c-0.26,0.26-0.87,0.35-1.83,0.26c-0.96-0.09-1.83-0.48-2.61-1.18c-0.65-0.57-1.25-1.38-1.8-2.45c-0.55-1.07-0.82-1.93-0.82-2.58
	c0-0.52-0.09-0.83-0.26-0.91c-0.13-0.04-0.2-1.11-0.2-3.2c0-2.74,0.09-4.35,0.26-4.83c0.04-0.17,0.11-0.35,0.2-0.52
	c0.09-0.17,0.16-0.33,0.23-0.46s0.12-0.28,0.16-0.46c0.04-0.17,0.07-0.35,0.07-0.52c0-0.22,0.17-0.59,0.52-1.11
	C76.7,7.43,77.02,7.06,77.33,6.84z M77.78,9.85c-0.09,0-0.22,0.39-0.39,1.18c-0.17,0.65-0.26,1.48-0.26,2.48
	c0,0.61,0.04,0.91,0.13,0.91h0.07c0.17-0.17,0.35-0.67,0.52-1.5c0.17-0.83,0.26-1.5,0.26-2.03C78.11,10.19,78,9.85,77.78,9.85z
	 M89.07,14.81c0.65-0.3,1.37-0.46,2.16-0.46c1.35,0,2.59,0.55,3.72,1.63c0.48,0.44,0.91,1.06,1.31,1.86
	c0.39,0.81,0.59,1.49,0.59,2.06c0,0.74-0.31,1.69-0.91,2.84c-0.61,1.15-1.11,1.73-1.5,1.73c-0.17,0-0.26,0.07-0.26,0.2
	c0,0.17-0.32,0.37-0.95,0.59c-0.63,0.22-1.25,0.33-1.86,0.33c-1.87,0-3.46-0.59-4.77-1.76c-1.39-1.22-2.09-2.55-2.09-3.98
	c0-1.13,0.46-2.16,1.37-3.07C86.53,16.12,87.59,15.46,89.07,14.81z M92.99,17.29c-0.61-0.39-1.28-0.59-2.03-0.59
	c-0.7,0-1.33,0.15-1.89,0.46c-1.61,0.87-2.42,1.72-2.42,2.55c0,0.39,0.14,0.88,0.42,1.47c0.28,0.59,0.53,0.88,0.75,0.88
	c0.13,0,0.35,0.15,0.65,0.46c0.22,0.22,0.83,0.46,1.83,0.72c0.3,0.09,0.7,0.13,1.18,0.13c0.91,0,1.68-0.46,2.29-1.37
	c0.39-0.61,0.59-1.26,0.59-1.96C94.36,18.86,93.91,17.95,92.99,17.29z M100.13,13.49c0.78-0.29,1.77-0.43,2.97-0.43
	c1.11,0,1.9,0.12,2.35,0.37c0.83,0.41,1.24,1.03,1.24,1.86c0,0.7-0.23,1.05-0.68,1.05c-0.21,0-0.37-0.16-0.5-0.5
	c-0.17-0.41-0.37-0.67-0.62-0.77c-0.25-0.1-0.85-0.15-1.8-0.15c-1.2,0-1.82,0.04-1.86,0.12c-0.12,0.12-0.31,0.19-0.56,0.19
	c-0.25,0-0.39,0.06-0.43,0.19c1.73,1.73,3.78,3.47,6.13,5.2c1.16,0.87,1.73,1.73,1.73,2.6c0,0.79-0.54,1.51-1.61,2.17
	c-1.07,0.66-2.25,0.99-3.53,0.99c-0.87,0-1.57-0.19-2.11-0.56c-0.99-0.66-1.61-1.57-1.86-2.73c-0.04-0.12-0.06-0.31-0.06-0.56
	c0-1.16,0.43-2.17,1.3-3.04l0.74-0.68l-1.05-1.12c-0.62-0.62-1.05-1.11-1.3-1.49c-0.12-0.25-0.19-0.52-0.19-0.81
	C98.46,14.58,99.01,13.94,100.13,13.49z M104.59,21.6c-0.17-0.12-0.39-0.29-0.68-0.5c-0.29-0.21-0.53-0.37-0.71-0.5
	c-0.19-0.12-0.32-0.23-0.4-0.31l-0.56-0.43l-0.43,0.81c-0.37,0.7-0.56,1.3-0.56,1.8c0,0.66,0.25,1.16,0.74,1.49
	c0.29,0.17,0.68,0.25,1.18,0.25c1.03,0,1.92-0.25,2.66-0.74c0.21-0.12,0.31-0.25,0.31-0.37C106.14,22.8,105.62,22.31,104.59,21.6z
	 M109.94,21.2c-0.14-0.46-0.21-0.92-0.21-1.38c0-1.38,0.46-2.61,1.38-3.69c0.92-1.08,2.12-1.62,3.59-1.62c3.13,0,4.7,0.81,4.7,2.42
	c0,0.6-0.16,1.06-0.48,1.38c-0.41,0.46-1.14,0.87-2.18,1.24c-1.04,0.37-2.04,0.6-3,0.69c-0.74,0.09-1.13,0.16-1.17,0.21l-0.07,0.07
	c0,0.09,0,0.16,0,0.21c0,0.92,0.37,1.7,1.11,2.35c0.37,0.37,0.72,0.59,1.07,0.66c0.35,0.07,1.14,0.1,2.38,0.1
	c1.7,0,2.67-0.11,2.9-0.35c0.23-0.23,0.48-0.35,0.76-0.35c0.69,0,1.04,0.32,1.04,0.97c0,0.18-0.07,0.37-0.21,0.55
	c-0.74,1.06-2.46,1.59-5.18,1.59c-1.24,0-2.03-0.03-2.35-0.1c-0.32-0.07-0.78-0.31-1.38-0.73C111.43,24.63,110.54,23.23,109.94,21.2
	z M116.57,17.06c-0.23,0-0.53-0.05-0.9-0.14h-0.41c-0.6,0-1.21,0.15-1.83,0.45c-0.62,0.3-0.93,0.61-0.93,0.93
	c0,0.09,0.11,0.14,0.35,0.14c0.41,0,1.27-0.18,2.56-0.55c1.01-0.32,1.52-0.58,1.52-0.76C116.91,17.08,116.8,17.06,116.57,17.06z
	 M128.25,6.57c0.12-0.12,0.34-0.16,0.65-0.09c0.31,0.06,0.49,0.18,0.53,0.34c0.04,0.08,0.06,0.25,0.06,0.5c0,0.7-0.17,1.68-0.5,2.92
	c-0.12,0.46-0.39,2.24-0.81,5.34L128,16.63l1.74-0.12c0.46-0.04,1.08-0.06,1.86-0.06h0.37c0.54,0.12,0.81,0.5,0.81,1.12
	c0,0.12-0.04,0.31-0.12,0.56c-0.12,0.25-0.3,0.39-0.53,0.43c-0.23,0.04-0.86,0.08-1.89,0.12l-2.11,0.06v0.93
	c0,0.58,0.08,1.37,0.25,2.36c0.29,1.57,0.95,2.36,1.99,2.36c0.04,0,0.1-0.01,0.19-0.03c0.08-0.02,0.17-0.03,0.25-0.03
	c1.03-0.12,1.55-0.41,1.55-0.87c0-0.21,0.11-0.38,0.34-0.53c0.23-0.14,0.49-0.18,0.78-0.09c0.37,0.12,0.56,0.37,0.56,0.74
	c0,0.46-0.2,0.95-0.59,1.49c-0.39,0.54-0.88,0.89-1.46,1.06c-0.46,0.17-1.01,0.25-1.68,0.25c-0.91,0-1.61-0.19-2.11-0.56
	c-0.7-0.58-1.19-1.21-1.46-1.89c-0.27-0.68-0.49-2.02-0.65-4l-0.19-1.43l-1.06-0.06h-1.86h-0.19c-0.66,0-0.99-0.25-0.99-0.74
	c0-0.04,0.01-0.1,0.03-0.19c0.02-0.08,0.03-0.14,0.03-0.19c0.08-0.37,0.29-0.62,0.62-0.74c0.33-0.12,0.97-0.23,1.92-0.31
	c0.21,0,0.43-0.01,0.68-0.03c0.25-0.02,0.41-0.03,0.5-0.03c0.08,0,0.19-0.02,0.31-0.06c0.12-0.04,0.2-0.06,0.22-0.06
	c0.02,0,0.06-0.06,0.12-0.19c0.06-0.12,0.09-0.22,0.09-0.28c0-0.06,0.01-0.22,0.03-0.47c0.02-0.25,0.05-0.45,0.09-0.62
	c0.41-3.35,0.89-5.57,1.43-6.64c0.17-0.25,0.25-0.5,0.25-0.74C128.13,6.84,128.17,6.65,128.25,6.57z M23.93,0.43
	c-0.05,0-0.09,0-0.14,0c-1.52-0.01-2.8,1.49-2.97,3.27c-0.13,0.69-0.19,1.77,0.57,1.95c0.65,0.18,1.08-0.64,0.97-1.33
	c0.04-1,0.54-2.1,1.48-1.99c1.07-0.12,2.13,1.17,1.74,2.47c-0.29,1.32-1.36,2.09-2.08,3.05c-0.24,0.42-0.34,0.89-0.38,1.38
	c-0.04,0.49-0.01,2.07-0.02,2.55c-6.25,3.39-13.41,6.19-19.64,9.61c-1.18,0.76-1.95,2.78-1.08,4.18c0.87,1.33,2.47,0.94,3.7,0.99
	c11.99-0.01,25.73,0.03,37.72-0.02c1.12-0.04,2.15-1.22,1.98-2.61c-0.12-1.66-1.4-2.7-2.63-3.2c-5.25-2.83-11.19-5.22-16.58-7.96
	c-0.1-0.06-0.21-0.09-0.32-0.09c-0.43,0-0.77,0.42-0.77,0.95c0,0.41,0.21,0.76,0.51,0.89c5.66,2.87,11.86,5.42,17.37,8.39
	c0.43,0.29,1.08,0.95,0.73,1.58c-0.8,0.38-1.75,0.06-2.6,0.16c-11.9-0.01-25.54,0.03-37.44-0.02c-0.59,0.05-0.53-0.85-0.21-1.16
	c0.85-1,2.14-1.26,3.17-1.95c5.34-2.88,11.55-5.22,16.88-8.09c0.72-0.33,0.77-1.08,0.79-1.65c0.03-0.29,0-1.69-0.01-2.02
	c-0.01-0.32,0.01-0.63,0.14-0.88c1.43-1.29,2.81-3.43,2.3-5.7C26.75,1.52,25.35,0.42,23.93,0.43L23.93,0.43z M134.5,3.61
	c0-0.44-0.35-0.79-0.79-0.79H1.29c-0.44,0-0.79,0.35-0.79,0.79s0.35,0.79,0.79,0.79h132.42C134.15,4.39,134.5,4.04,134.5,3.61z"/>
</svg>
