<?xml version="1.0" encoding="utf-8"?>
<!-- Generator: Adobe Illustrator 27.3.0, SVG Export Plug-In . SVG Version: 6.00 Build 0)  -->
<svg version="1.1" id="LOGO" xmlns="http://www.w3.org/2000/svg" xmlns:xlink="http://www.w3.org/1999/xlink" x="0px" y="0px"
	 viewBox="0 0 121.5 27" enable-background="new 0 0 121.5 27" xml:space="preserve">
<g>
	<g>
		<path fill="#F0EBD8" d="M51.01,14.95c0.66-0.33,1.14-0.5,1.43-0.5c0.29,0,0.64,0.09,1.06,0.28c0.41,0.19,0.62,0.34,0.62,0.47
			s0.1,0.19,0.31,0.19c0.17,0,0.34,0.2,0.53,0.59c0.19,0.39,0.28,0.76,0.28,1.09c0,0.37-0.1,0.68-0.31,0.93
			c-0.21,0.25-0.44,0.37-0.68,0.37s-0.43-0.17-0.56-0.5c-0.25-0.66-0.64-0.99-1.18-0.99s-1.2,0.37-1.99,1.12
			c-0.5,0.41-0.75,1.02-0.75,1.8c0,0.99,0.36,1.97,1.09,2.92c0.72,0.95,1.48,1.43,2.27,1.43c0.5,0,1.45-0.41,2.86-1.24
			c0.75-0.37,1.3-0.93,1.68-1.68c0.5-0.75,0.95-1.12,1.37-1.12c0.29,0,0.54,0.1,0.75,0.31c0.37,0.37,0.56,0.66,0.56,0.87
			c0,0.33-0.49,0.99-1.46,1.99s-1.85,1.72-2.64,2.17c-1.08,0.66-2.05,0.99-2.92,0.99s-1.47-0.1-1.8-0.31
			c-0.37-0.21-0.91-0.61-1.62-1.21c-0.7-0.6-1.06-0.94-1.06-1.02c0-0.12-0.23-0.56-0.68-1.3c-0.5-0.83-0.75-1.7-0.75-2.61
			c0-0.99,0.12-1.74,0.37-2.24C48.32,16.71,49.4,15.78,51.01,14.95z"/>
		<path fill="#F0EBD8" d="M64.3,7.93c0.58-0.5,1.08-0.48,1.49,0.06c0.58,0.75,0.87,1.88,0.87,3.42c0,2.11-0.58,4.04-1.74,5.78
			c-0.41,0.58-0.62,1.04-0.62,1.37c0,0.08,0.04,0.27,0.12,0.56c0.08,0.29,0.12,0.62,0.12,0.99s0.22,0.97,0.65,1.8
			c0.44,0.83,0.82,1.41,1.15,1.74c0.41,0.37,0.95,0.58,1.62,0.62c0.79,0.08,1.24,0.19,1.37,0.31c0.21,0.17,0.29,0.4,0.25,0.71
			s-0.19,0.57-0.43,0.78c-0.25,0.25-0.83,0.33-1.74,0.25c-0.91-0.08-1.74-0.46-2.48-1.12c-0.62-0.54-1.19-1.31-1.71-2.33
			c-0.52-1.01-0.78-1.83-0.78-2.45c0-0.5-0.08-0.79-0.25-0.87C62.07,19.5,62,18.49,62,16.5c0-2.61,0.08-4.14,0.25-4.6
			c0.04-0.17,0.1-0.33,0.19-0.5c0.08-0.17,0.16-0.31,0.22-0.44c0.06-0.12,0.11-0.27,0.16-0.43c0.04-0.17,0.06-0.33,0.06-0.5
			c0-0.21,0.17-0.56,0.5-1.06C63.7,8.49,64.01,8.14,64.3,7.93z M64.74,10.79c-0.08,0-0.21,0.37-0.37,1.12
			c-0.17,0.62-0.25,1.41-0.25,2.36c0,0.58,0.04,0.87,0.12,0.87h0.06c0.17-0.17,0.33-0.64,0.5-1.43c0.17-0.79,0.25-1.43,0.25-1.93
			C65.05,11.12,64.94,10.79,64.74,10.79z"/>
		<path fill="#F0EBD8" d="M75.6,15.51c0.62-0.29,1.3-0.43,2.05-0.43c1.28,0,2.46,0.52,3.54,1.55c0.46,0.41,0.87,1,1.24,1.77
			c0.37,0.77,0.56,1.42,0.56,1.96c0,0.7-0.29,1.6-0.87,2.7c-0.58,1.1-1.06,1.65-1.43,1.65c-0.17,0-0.25,0.06-0.25,0.19
			c0,0.17-0.3,0.35-0.9,0.56c-0.6,0.21-1.19,0.31-1.77,0.31c-1.78,0-3.29-0.56-4.53-1.68c-1.33-1.16-1.99-2.42-1.99-3.79
			c0-1.08,0.43-2.05,1.3-2.92C73.18,16.75,74.2,16.13,75.6,15.51z M79.33,17.87c-0.58-0.37-1.22-0.56-1.93-0.56
			c-0.66,0-1.26,0.15-1.8,0.43c-1.53,0.83-2.3,1.64-2.3,2.42c0,0.37,0.13,0.84,0.4,1.4s0.51,0.84,0.71,0.84
			c0.12,0,0.33,0.15,0.62,0.44c0.21,0.21,0.79,0.43,1.74,0.68c0.29,0.08,0.66,0.12,1.12,0.12c0.87,0,1.59-0.43,2.17-1.3
			c0.37-0.58,0.56-1.2,0.56-1.86C80.64,19.36,80.2,18.49,79.33,17.87z"/>
		<path fill="#F0EBD8" d="M86.35,13.58c0.79-0.29,1.78-0.44,2.98-0.44c1.12,0,1.9,0.12,2.36,0.37c0.83,0.41,1.24,1.04,1.24,1.86
			c0,0.7-0.23,1.06-0.68,1.06c-0.21,0-0.37-0.17-0.5-0.5c-0.17-0.41-0.37-0.67-0.62-0.78c-0.25-0.1-0.85-0.16-1.8-0.16
			c-1.2,0-1.82,0.04-1.86,0.12c-0.12,0.12-0.31,0.19-0.56,0.19c-0.25,0-0.39,0.06-0.44,0.19c1.74,1.74,3.79,3.48,6.15,5.22
			c1.16,0.87,1.74,1.74,1.74,2.61c0,0.79-0.54,1.51-1.62,2.17c-1.08,0.66-2.26,0.99-3.54,0.99c-0.87,0-1.57-0.19-2.11-0.56
			c-0.99-0.66-1.61-1.57-1.86-2.73c-0.04-0.12-0.06-0.31-0.06-0.56c0-1.16,0.43-2.17,1.3-3.04l0.75-0.68l-1.06-1.12
			c-0.62-0.62-1.06-1.12-1.3-1.49c-0.12-0.25-0.19-0.52-0.19-0.81C84.67,14.68,85.23,14.04,86.35,13.58z M90.82,21.72
			c-0.17-0.12-0.39-0.29-0.68-0.5c-0.29-0.21-0.53-0.37-0.71-0.5c-0.19-0.12-0.32-0.23-0.4-0.31l-0.56-0.43l-0.44,0.81
			c-0.37,0.7-0.56,1.3-0.56,1.8c0,0.66,0.25,1.16,0.75,1.49c0.29,0.17,0.68,0.25,1.18,0.25c1.03,0,1.92-0.25,2.67-0.75
			c0.21-0.12,0.31-0.25,0.31-0.37C92.37,22.92,91.86,22.42,90.82,21.72z"/>
		<path fill="#F0EBD8" d="M96.23,21.84c-0.12-0.41-0.19-0.83-0.19-1.24c0-1.24,0.41-2.35,1.24-3.32c0.83-0.97,1.9-1.46,3.23-1.46
			c2.82,0,4.22,0.73,4.22,2.17c0,0.54-0.15,0.95-0.43,1.24c-0.37,0.41-1.03,0.79-1.96,1.12c-0.93,0.33-1.83,0.54-2.7,0.62
			c-0.66,0.08-1.02,0.15-1.06,0.19l-0.06,0.06c0,0.08,0,0.15,0,0.19c0,0.83,0.33,1.53,0.99,2.11c0.33,0.33,0.65,0.53,0.96,0.59
			c0.31,0.06,1.03,0.09,2.14,0.09c1.53,0,2.4-0.1,2.61-0.31c0.21-0.21,0.43-0.31,0.68-0.31c0.62,0,0.93,0.29,0.93,0.87
			c0,0.17-0.06,0.33-0.19,0.5c-0.66,0.95-2.22,1.43-4.66,1.43c-1.12,0-1.82-0.03-2.11-0.09c-0.29-0.06-0.7-0.28-1.24-0.65
			C97.57,24.93,96.76,23.67,96.23,21.84z M102.19,18.12c-0.21,0-0.48-0.04-0.81-0.12h-0.37c-0.54,0-1.09,0.13-1.65,0.4
			c-0.56,0.27-0.84,0.55-0.84,0.84c0,0.08,0.1,0.12,0.31,0.12c0.37,0,1.14-0.16,2.3-0.5c0.91-0.29,1.37-0.52,1.37-0.68
			C102.5,18.14,102.39,18.12,102.19,18.12z"/>
		<path fill="#F0EBD8" d="M114.98,5.94c0.12-0.12,0.34-0.16,0.65-0.09s0.49,0.18,0.53,0.34c0.04,0.08,0.06,0.25,0.06,0.5
			c0,0.7-0.17,1.68-0.5,2.92c-0.12,0.46-0.39,2.24-0.81,5.34L114.73,16l1.74-0.12c0.46-0.04,1.08-0.06,1.86-0.06h0.37
			c0.54,0.12,0.81,0.5,0.81,1.12c0,0.12-0.04,0.31-0.12,0.56c-0.12,0.25-0.3,0.39-0.53,0.44c-0.23,0.04-0.86,0.08-1.89,0.12
			l-2.11,0.06v0.93c0,0.58,0.08,1.37,0.25,2.36c0.29,1.57,0.95,2.36,1.99,2.36c0.04,0,0.1-0.01,0.19-0.03
			c0.08-0.02,0.17-0.03,0.25-0.03c1.03-0.12,1.55-0.41,1.55-0.87c0-0.21,0.11-0.38,0.34-0.53c0.23-0.15,0.49-0.18,0.78-0.09
			c0.37,0.12,0.56,0.37,0.56,0.75c0,0.46-0.2,0.95-0.59,1.49c-0.39,0.54-0.88,0.89-1.46,1.06c-0.46,0.17-1.01,0.25-1.68,0.25
			c-0.91,0-1.61-0.19-2.11-0.56c-0.71-0.58-1.19-1.21-1.46-1.89s-0.49-2.02-0.65-4.01l-0.19-1.43l-1.06-0.06h-1.86h-0.19
			c-0.66,0-0.99-0.25-0.99-0.75c0-0.04,0.01-0.1,0.03-0.19c0.02-0.08,0.03-0.14,0.03-0.19c0.08-0.37,0.29-0.62,0.62-0.75
			c0.33-0.12,0.97-0.23,1.92-0.31c0.21,0,0.43-0.01,0.68-0.03c0.25-0.02,0.41-0.03,0.5-0.03c0.08,0,0.19-0.02,0.31-0.06
			c0.12-0.04,0.2-0.06,0.22-0.06c0.02,0,0.06-0.06,0.12-0.19c0.06-0.12,0.09-0.22,0.09-0.28s0.01-0.22,0.03-0.47
			c0.02-0.25,0.05-0.46,0.09-0.62c0.41-3.35,0.89-5.57,1.43-6.65c0.17-0.25,0.25-0.5,0.25-0.75C114.86,6.21,114.9,6.03,114.98,5.94z
			"/>
	</g>
	<path id="path3801_00000083807829078685535310000011039184155782224822_" fill="#F0EBD8" d="M21.7,0.5c-0.04,0-0.08,0-0.13,0
		c-1.41-0.01-2.6,1.38-2.75,3.03c-0.12,0.64-0.18,1.64,0.53,1.81c0.6,0.16,1-0.6,0.9-1.24c0.03-0.92,0.5-1.94,1.37-1.84
		c0.99-0.11,1.98,1.09,1.61,2.29c-0.27,1.23-1.26,1.94-1.92,2.83c-0.22,0.39-0.31,0.83-0.35,1.28c-0.03,0.46-0.01,1.92-0.02,2.36
		c-5.79,3.14-12.42,5.73-18.2,8.9c-1.09,0.71-1.8,2.57-1,3.87c0.8,1.23,2.29,0.87,3.42,0.91c11.11-0.01,23.84,0.02,34.95-0.02
		c1.04-0.04,2-1.13,1.84-2.41c-0.11-1.54-1.29-2.5-2.43-2.97c-4.86-2.62-10.36-4.84-15.36-7.37c-0.09-0.05-0.19-0.08-0.3-0.08
		c-0.39,0-0.71,0.39-0.71,0.88c0,0.38,0.2,0.71,0.47,0.83c5.25,2.66,10.99,5.02,16.09,7.77c0.4,0.27,1,0.88,0.68,1.47
		c-0.74,0.35-1.62,0.05-2.41,0.15c-11.02-0.01-23.66,0.02-34.69-0.02c-0.55,0.05-0.49-0.79-0.19-1.08c0.79-0.93,1.98-1.17,2.93-1.81
		c4.95-2.66,10.7-4.83,15.64-7.5c0.67-0.31,0.71-1,0.73-1.53c0.03-0.27,0-1.57-0.01-1.87c-0.01-0.3,0.01-0.59,0.13-0.82
		c1.32-1.2,2.61-3.18,2.13-5.28C24.31,1.51,23.01,0.49,21.7,0.5L21.7,0.5z"/>
	<line fill="none" stroke="#F0EBD8" stroke-linecap="round" stroke-miterlimit="10" x1="0.74" y1="3.44" x2="120.43" y2="3.44"/>
</g>
</svg>
